<?xml version="1.0" encoding="UTF-8" standalone="no"?>
<!DOCTYPE svg PUBLIC "-//W3C//DTD SVG 1.1//EN"
 "http://www.w3.org/Graphics/SVG/1.1/DTD/svg11.dtd">
<!-- Generated by graphviz version 2.28.0 (20110507.0327)
 -->
<!-- Title: G Pages: 1 -->
<svg width="124pt" height="204pt"
 viewBox="0.00 0.00 124.00 204.00" xmlns="http://www.w3.org/2000/svg" xmlns:xlink="http://www.w3.org/1999/xlink">
<g id="graph1" class="graph" transform="scale(1 1) rotate(0) translate(4 200)">
<title>G</title>
<polygon fill="white" stroke="white" points="-4,5 -4,-200 121,-200 121,5 -4,5"/>
<g id="graph2" class="cluster"><title>cluster_global</title>
<polyline fill="none" stroke="gray" points="20,-8 96,-8 "/>
<path fill="none" stroke="gray" d="M96,-8C102,-8 108,-14 108,-20"/>
<polyline fill="none" stroke="gray" points="108,-20 108,-176 "/>
<path fill="none" stroke="gray" d="M108,-176C108,-182 102,-188 96,-188"/>
<polyline fill="none" stroke="gray" points="96,-188 20,-188 "/>
<path fill="none" stroke="gray" d="M20,-188C14,-188 8,-182 8,-176"/>
<polyline fill="none" stroke="gray" points="8,-176 8,-20 "/>
<path fill="none" stroke="gray" d="M8,-20C8,-14 14,-8 20,-8"/>
<text text-anchor="middle" x="58" y="-175.2" font-family="Times New Roman,serif" font-size="11.00" fill="gray">global</text>
</g>
<!-- \\Calculator -->
<g id="node2" class="node"><title>\\Calculator</title>
<a xlink:href="Calculator.html" xlink:title="Calculator" target="_parent">
<polygon fill="none" stroke="black" points="100,-160 16,-160 16,-124 100,-124 100,-160"/>
<text text-anchor="middle" x="58" y="-139.2" font-family="Courier,monospace" font-size="11.00">Calculator</text>
</a>
</g>
<!-- \\Guestbook -->
<g id="node3" class="node"><title>\\Guestbook</title>
<a xlink:href="Guestbook.html" xlink:title="Guestbook" target="_parent">
<polygon fill="none" stroke="black" points="96.5,-106 19.5,-106 19.5,-70 96.5,-70 96.5,-106"/>
<text text-anchor="middle" x="58" y="-85.2" font-family="Courier,monospace" font-size="11.00">Guestbook</text>
</a>
</g>
<!-- \\Loader -->
<g id="node4" class="node"><title>\\Loader</title>
<a xlink:href="Loader.html" xlink:title="Loader" target="_parent">
<polygon fill="none" stroke="black" points="86.5,-52 29.5,-52 29.5,-16 86.5,-16 86.5,-52"/>
<text text-anchor="middle" x="58" y="-31.2" font-family="Courier,monospace" font-size="11.00">Loader</text>
</a>
</g>
</g>
</svg>
